<svg xmlns="http://www.w3.org/2000/svg" viewBox="0 0 512 512">
  <defs>
    <linearGradient id="grad" x1="0%" y1="0%" x2="100%" y2="100%">
      <stop offset="0%" style="stop-color:#4F46E5;stop-opacity:1" />
      <stop offset="100%" style="stop-color:#7C3AED;stop-opacity:1" />
    </linearGradient>
  </defs>
  
  <!-- Background circle -->
  <circle cx="256" cy="256" r="240" fill="url(#grad)"/>
  
  <!-- House icon -->
  <path d="M256 100 L400 220 L400 400 L320 400 L320 300 L192 300 L192 400 L112 400 L112 220 Z" 
        fill="white" stroke="white" stroke-width="8" stroke-linejoin="round"/>
  
  <!-- Roof accent -->
  <path d="M256 100 L400 220 L112 220 Z" 
        fill="white" stroke="white" stroke-width="8" stroke-linejoin="round"/>
  
  <!-- Door -->
  <rect x="224" y="320" width="64" height="80" rx="4" fill="url(#grad)"/>
  
  <!-- Window left -->
  <rect x="144" y="240" width="48" height="48" rx="4" fill="url(#grad)"/>
  
  <!-- Window right -->
  <rect x="320" y="240" width="48" height="48" rx="4" fill="url(#grad)"/>
  
  <!-- AI sparkle -->
  <circle cx="400" cy="140" r="40" fill="#F59E0B"/>
  <path d="M400 108 L404 128 L424 132 L404 136 L400 156 L396 136 L376 132 L396 128 Z" fill="white"/>
</svg>
